<svg id="visual" viewBox="0 0 960 540" width="960" height="540" xmlns="http://www.w3.org/2000/svg" xmlns:xlink="http://www.w3.org/1999/xlink" version="1.1"><rect x="0" y="0" width="960" height="540" fill="#DA4167"></rect><defs><linearGradient id="grad1_0" x1="43.8%" y1="100%" x2="100%" y2="0%"><stop offset="14.444444444444446%" stop-color="#ffe900" stop-opacity="1"></stop><stop offset="85.55555555555554%" stop-color="#ffe900" stop-opacity="1"></stop></linearGradient></defs><defs><linearGradient id="grad1_1" x1="43.8%" y1="100%" x2="100%" y2="0%"><stop offset="14.444444444444446%" stop-color="#ffe900" stop-opacity="1"></stop><stop offset="85.55555555555554%" stop-color="#ffce02" stop-opacity="1"></stop></linearGradient></defs><defs><linearGradient id="grad1_2" x1="43.8%" y1="100%" x2="100%" y2="0%"><stop offset="14.444444444444446%" stop-color="#ffb21d" stop-opacity="1"></stop><stop offset="85.55555555555554%" stop-color="#ffce02" stop-opacity="1"></stop></linearGradient></defs><defs><linearGradient id="grad1_3" x1="43.8%" y1="100%" x2="100%" y2="0%"><stop offset="14.444444444444446%" stop-color="#ffb21d" stop-opacity="1"></stop><stop offset="85.55555555555554%" stop-color="#ff9732" stop-opacity="1"></stop></linearGradient></defs><defs><linearGradient id="grad1_4" x1="43.8%" y1="100%" x2="100%" y2="0%"><stop offset="14.444444444444446%" stop-color="#ff7e42" stop-opacity="1"></stop><stop offset="85.55555555555554%" stop-color="#ff9732" stop-opacity="1"></stop></linearGradient></defs><defs><linearGradient id="grad1_5" x1="43.8%" y1="100%" x2="100%" y2="0%"><stop offset="14.444444444444446%" stop-color="#ff7e42" stop-opacity="1"></stop><stop offset="85.55555555555554%" stop-color="#ff6651" stop-opacity="1"></stop></linearGradient></defs><defs><linearGradient id="grad1_6" x1="43.8%" y1="100%" x2="100%" y2="0%"><stop offset="14.444444444444446%" stop-color="#ef515d" stop-opacity="1"></stop><stop offset="85.55555555555554%" stop-color="#ff6651" stop-opacity="1"></stop></linearGradient></defs><defs><linearGradient id="grad1_7" x1="43.8%" y1="100%" x2="100%" y2="0%"><stop offset="14.444444444444446%" stop-color="#ef515d" stop-opacity="1"></stop><stop offset="85.55555555555554%" stop-color="#da4167" stop-opacity="1"></stop></linearGradient></defs><defs><linearGradient id="grad2_0" x1="0%" y1="100%" x2="56.3%" y2="0%"><stop offset="14.444444444444446%" stop-color="#ffe900" stop-opacity="1"></stop><stop offset="85.55555555555554%" stop-color="#ffe900" stop-opacity="1"></stop></linearGradient></defs><defs><linearGradient id="grad2_1" x1="0%" y1="100%" x2="56.3%" y2="0%"><stop offset="14.444444444444446%" stop-color="#ffce02" stop-opacity="1"></stop><stop offset="85.55555555555554%" stop-color="#ffe900" stop-opacity="1"></stop></linearGradient></defs><defs><linearGradient id="grad2_2" x1="0%" y1="100%" x2="56.3%" y2="0%"><stop offset="14.444444444444446%" stop-color="#ffce02" stop-opacity="1"></stop><stop offset="85.55555555555554%" stop-color="#ffb21d" stop-opacity="1"></stop></linearGradient></defs><defs><linearGradient id="grad2_3" x1="0%" y1="100%" x2="56.3%" y2="0%"><stop offset="14.444444444444446%" stop-color="#ff9732" stop-opacity="1"></stop><stop offset="85.55555555555554%" stop-color="#ffb21d" stop-opacity="1"></stop></linearGradient></defs><defs><linearGradient id="grad2_4" x1="0%" y1="100%" x2="56.3%" y2="0%"><stop offset="14.444444444444446%" stop-color="#ff9732" stop-opacity="1"></stop><stop offset="85.55555555555554%" stop-color="#ff7e42" stop-opacity="1"></stop></linearGradient></defs><defs><linearGradient id="grad2_5" x1="0%" y1="100%" x2="56.3%" y2="0%"><stop offset="14.444444444444446%" stop-color="#ff6651" stop-opacity="1"></stop><stop offset="85.55555555555554%" stop-color="#ff7e42" stop-opacity="1"></stop></linearGradient></defs><defs><linearGradient id="grad2_6" x1="0%" y1="100%" x2="56.3%" y2="0%"><stop offset="14.444444444444446%" stop-color="#ff6651" stop-opacity="1"></stop><stop offset="85.55555555555554%" stop-color="#ef515d" stop-opacity="1"></stop></linearGradient></defs><defs><linearGradient id="grad2_7" x1="0%" y1="100%" x2="56.3%" y2="0%"><stop offset="14.444444444444446%" stop-color="#da4167" stop-opacity="1"></stop><stop offset="85.55555555555554%" stop-color="#ef515d" stop-opacity="1"></stop></linearGradient></defs><g transform="translate(960, 540)"><path d="M-540 0C-501.9 -80 -463.7 -160.1 -423.5 -244.5C-383.3 -328.9 -340.9 -417.7 -270 -467.7C-199.1 -517.6 -99.5 -528.8 0 -540L0 0Z" fill="#e54962"></path><path d="M-472.5 0C-439.1 -70 -405.8 -140.1 -370.6 -213.9C-335.3 -287.8 -298.3 -365.5 -236.3 -409.2C-174.2 -452.9 -87.1 -462.7 0 -472.5L0 0Z" fill="#f85b57"></path><path d="M-405 0C-376.4 -60 -347.8 -120.1 -317.6 -183.4C-287.4 -246.7 -255.7 -313.3 -202.5 -350.7C-149.3 -388.2 -74.7 -396.6 0 -405L0 0Z" fill="#ff724a"></path><path d="M-337.5 0C-313.7 -50 -289.8 -100.1 -264.7 -152.8C-239.5 -205.6 -213.1 -261 -168.8 -292.3C-124.4 -323.5 -62.2 -330.5 0 -337.5L0 0Z" fill="#ff8a3a"></path><path d="M-270 0C-250.9 -40 -231.9 -80 -211.7 -122.3C-191.6 -164.5 -170.5 -208.8 -135 -233.8C-99.5 -258.8 -49.8 -264.4 0 -270L0 0Z" fill="#ffa528"></path><path d="M-202.5 0C-188.2 -30 -173.9 -60 -158.8 -91.7C-143.7 -123.3 -127.8 -156.6 -101.3 -175.4C-74.7 -194.1 -37.3 -198.3 0 -202.5L0 0Z" fill="#ffc011"></path><path d="M-135 0C-125.5 -20 -115.9 -40 -105.9 -61.1C-95.8 -82.2 -85.2 -104.4 -67.5 -116.9C-49.8 -129.4 -24.9 -132.2 0 -135L0 0Z" fill="#ffdb00"></path><path d="M-67.5 0C-62.7 -10 -58 -20 -52.9 -30.6C-47.9 -41.1 -42.6 -52.2 -33.8 -58.5C-24.9 -64.7 -12.4 -66.1 0 -67.5L0 0Z" fill="#ffe900"></path></g><g transform="translate(0, 0)"><path d="M540 0C526.3 95.1 512.6 190.3 467.7 270C422.7 349.7 346.6 414 263.5 456.4C180.4 498.8 90.2 519.4 0 540L0 0Z" fill="#e54962"></path><path d="M472.5 0C460.5 83.3 448.5 166.5 409.2 236.2C369.9 306 303.3 362.2 230.6 399.3C157.8 436.5 78.9 454.5 0 472.5L0 0Z" fill="#f85b57"></path><path d="M405 0C394.7 71.4 384.4 142.7 350.7 202.5C317.1 262.3 260 310.5 197.6 342.3C135.3 374.1 67.6 389.6 0 405L0 0Z" fill="#ff724a"></path><path d="M337.5 0C328.9 59.5 320.4 118.9 292.3 168.7C264.2 218.6 216.7 258.7 164.7 285.2C112.7 311.8 56.4 324.6 0 337.5L0 0Z" fill="#ff8a3a"></path><path d="M270 0C263.1 47.6 256.3 95.1 233.8 135C211.4 174.9 173.3 207 131.8 228.2C90.2 249.4 45.1 259.7 0 270L0 0Z" fill="#ffa528"></path><path d="M202.5 0C197.4 35.7 192.2 71.4 175.4 101.2C158.5 131.1 130 155.2 98.8 171.1C67.6 187.1 33.8 194.8 0 202.5L0 0Z" fill="#ffc011"></path><path d="M135 0C131.6 23.8 128.1 47.6 116.9 67.5C105.7 87.4 86.7 103.5 65.9 114.1C45.1 124.7 22.5 129.9 0 135L0 0Z" fill="#ffdb00"></path><path d="M67.5 0C65.8 11.9 64.1 23.8 58.5 33.7C52.8 43.7 43.3 51.7 32.9 57C22.5 62.4 11.3 64.9 0 67.5L0 0Z" fill="#ffe900"></path></g></svg>